HIERARCHY
ROOT Hips
{
	OFFSET -0.001795 -0.223333 0.028219
	CHANNELS 6 Xposition Yposition Zposition Zrotation Yrotation Xrotation 
	JOINT LeftUpLeg
	{
		OFFSET 0.069520 -0.091406 -0.006815
		CHANNELS 3 Zrotation Yrotation Xrotation
		JOINT LeftLeg
		{
			OFFSET 0.034277 -0.375199 -0.004496
			CHANNELS 3 Zrotation Yrotation Xrotation
			JOINT LeftFoot
			{
				OFFSET -0.013596 -0.397961 -0.043693
				CHANNELS 3 Zrotation Yrotation Xrotation
				JOINT LeftToe
				{
					OFFSET 0.026358 -0.055791 0.119288
					CHANNELS 3 Zrotation Yrotation Xrotation
					End Site
					{
						OFFSET 0.000000 0.000000 0.000000
					}
				}
			}
		}
	}
	JOINT RightUpLeg
	{
		OFFSET -0.067670 -0.090522 -0.004320
		CHANNELS 3 Zrotation Yrotation Xrotation
		JOINT RightLeg
		{
			OFFSET -0.038290 -0.382569 -0.008850
			CHANNELS 3 Zrotation Yrotation Xrotation
			JOINT RightFoot
			{
				OFFSET 0.015774 -0.398415 -0.042312
				CHANNELS 3 Zrotation Yrotation Xrotation
				JOINT RightToe
				{
					OFFSET -0.025372 -0.048144 0.123348
					CHANNELS 3 Zrotation Yrotation Xrotation
					End Site
					{
						OFFSET 0.000000 0.000000 0.000000
					}
				}
			}
		}
	}
	JOINT Spine
	{
		OFFSET -0.002533 0.108963 -0.026696
		CHANNELS 3 Zrotation Yrotation Xrotation
		JOINT Spine1
		{
			OFFSET 0.005487 0.135180 0.001092
			CHANNELS 3 Zrotation Yrotation Xrotation
			JOINT Spine2
			{
				OFFSET 0.001457 0.052922 0.025425
				CHANNELS 3 Zrotation Yrotation Xrotation
				JOINT Neck
				{
					OFFSET -0.002778 0.213870 -0.042857
					CHANNELS 3 Zrotation Yrotation Xrotation
					JOINT Head
					{
						OFFSET 0.005152 0.064970 0.051349
						CHANNELS 3 Zrotation Yrotation Xrotation
						End Site
						{
							OFFSET 0.000000 0.000000 0.000000
						}
					}
				}
				JOINT LeftShoulder
				{
					OFFSET 0.078845 0.121749 -0.034090
					CHANNELS 3 Zrotation Yrotation Xrotation
					JOINT LeftArm
					{
						OFFSET 0.090977 0.030469 -0.008868
						CHANNELS 3 Zrotation Yrotation Xrotation
						JOINT LeftForeArm
						{
							OFFSET 0.259612 -0.012772 -0.027456
							CHANNELS 3 Zrotation Yrotation Xrotation
							JOINT LeftHand
							{
								OFFSET 0.249234 0.008986 -0.001171
								CHANNELS 3 Zrotation Yrotation Xrotation
								End Site
								{
									OFFSET 0.000000 0.000000 0.000000
								}
							}
						}
					}
				}
				JOINT RightShoulder
				{
					OFFSET -0.081759 0.118833 -0.038615
					CHANNELS 3 Zrotation Yrotation Xrotation
					JOINT RightArm
					{
						OFFSET -0.096012 0.032551 -0.009143
						CHANNELS 3 Zrotation Yrotation Xrotation
						JOINT RightForeArm
						{
							OFFSET -0.253742 -0.013329 -0.021401
							CHANNELS 3 Zrotation Yrotation Xrotation
							JOINT RightHand
							{
								OFFSET -0.255298 0.007772 -0.005559
								CHANNELS 3 Zrotation Yrotation Xrotation
								End Site
								{
									OFFSET 0.000000 0.000000 0.000000
								}
							}
						}
					}
				}
			}
		}
	}
}
MOTION
Frames: 6
Frame Time: 0.050000
0.000000 0.960897 0.000000 -1.148093 -5.726887 -0.129227 -0.575993 0.500899 4.828923 1.704927 -0.105329 -2.049594 -1.725834 -1.294591 5.563732 0.000000 0.000000 0.000000 1.113466 -0.116565 0.773043 -1.755989 0.302405 2.304647 3.547568 4.758254 5.759764 0.000000 0.000000 0.000000 4.070341 -0.230026 2.683858 -1.948350 0.957872 1.498643 -2.050987 2.796275 4.789725 6.729971 -2.782272 -16.909798 0.000000 0.000000 0.000000 -24.094738 -6.814978 1.551356 -48.750635 -9.138158 -2.178531 -2.144874 -22.849077 1.292402 0.000000 0.000000 0.000000 22.122076 3.126681 -0.214745 52.901487 9.698660 -0.979373 1.435750 22.878042 1.040178 0.000000 0.000000 0.000000 
-0.001390 0.960406 0.000614 -1.344235 -6.563657 0.054532 0.077950 0.522790 5.284290 1.367689 -0.017902 -3.236333 -1.669800 -1.535926 4.830382 0.000000 0.000000 0.000000 1.581593 -0.053373 0.003143 -1.928590 0.365278 3.024643 3.044211 4.598684 4.206179 0.000000 0.000000 0.000000 4.237590 -0.234059 2.655547 -1.724702 0.850458 1.446948 -3.067682 3.650765 4.807520 7.942382 -3.210824 -18.369463 0.000000 0.000000 0.000000 -23.409169 -7.004674 1.477563 -49.584102 -9.432641 -2.034566 -1.638697 -23.017862 1.176682 0.000000 0.000000 0.000000 22.163160 2.963396 -0.112908 53.594709 10.045721 -0.873104 0.892928 23.566224 1.004994 0.000000 0.000000 0.000000 
-0.002872 0.959809 0.001189 -1.210814 -6.660757 0.371246 -0.158977 0.450776 4.481761 1.579128 -0.108418 -1.778177 -1.463780 -1.648222 3.558888 0.000000 0.000000 0.000000 1.840391 0.028223 -0.824799 -2.071705 0.440214 3.917903 2.659815 4.387653 3.206457 0.000000 0.000000 0.000000 4.699912 -0.266326 2.836015 -1.770109 0.847457 -0.264472 -3.417402 3.972836 6.470373 7.697787 -3.115336 -18.261392 0.000000 0.000000 0.000000 -22.885387 -7.578020 1.844304 -49.420824 -10.074925 -1.913289 -1.941226 -22.449229 1.214954 0.000000 0.000000 0.000000 22.032567 2.979329 0.027125 53.765478 10.185721 -0.990775 1.517774 23.844942 1.167527 0.000000 0.000000 0.000000 
-0.004599 0.960171 0.002245 -1.138946 -6.634961 0.135058 -0.037507 0.559173 5.575432 1.394425 -0.049874 -2.621414 -1.727254 -2.237323 3.418183 0.000000 0.000000 0.000000 2.183355 0.058411 -1.147845 -2.217628 0.523021 4.856706 2.548851 4.624980 2.503352 0.000000 0.000000 0.000000 4.531539 -0.293842 3.306312 -1.356309 0.657388 0.531985 -3.763036 3.897394 5.806296 7.873225 -3.132924 -18.631692 0.000000 0.000000 0.000000 -23.122172 -7.734059 1.872200 -49.067148 -10.619572 -1.611844 -1.663328 -23.261684 1.193279 0.000000 0.000000 0.000000 22.262839 3.186008 0.131241 53.331623 9.888996 -1.065309 1.540898 24.557925 1.205762 0.000000 0.000000 0.000000 
-0.006552 0.960179 0.003846 -1.090310 -6.593728 -0.002887 -0.398994 0.596615 5.755235 1.825091 -0.101754 -2.421400 -1.247298 -1.276269 3.393025 0.000000 0.000000 0.000000 2.653413 0.099724 -1.566031 -2.648532 0.665372 5.977050 2.458681 4.841925 1.906126 0.000000 0.000000 0.000000 4.527794 -0.326062 3.751942 -1.290439 0.627486 0.784336 -3.867714 3.771360 5.608088 7.951692 -3.228246 -18.335944 0.000000 0.000000 0.000000 -23.253720 -8.454247 2.300856 -48.533844 -11.037461 -1.419387 -1.630759 -23.561127 1.200733 0.000000 0.000000 0.000000 21.874056 3.376431 0.236083 53.515651 9.735820 -1.109563 1.289039 24.861246 1.167553 0.000000 0.000000 0.000000 
-0.009012 0.959737 0.006614 -1.048226 -6.482147 -0.323202 -0.311836 0.662376 6.416436 1.626791 -0.074143 -2.581865 -1.054911 -1.185852 2.628687 0.000000 0.000000 0.000000 2.997093 0.134789 -1.868535 -2.836418 0.765429 6.912779 2.453408 5.393804 1.157050 0.000000 0.000000 0.000000 4.511103 -0.385508 4.609570 -0.994661 0.479481 0.333274 -4.057827 3.632421 5.820926 7.851743 -3.105907 -18.833536 0.000000 0.000000 0.000000 -23.426021 -9.001368 2.645727 -48.227586 -11.388501 -1.301450 -1.053546 -23.885747 1.101903 0.000000 0.000000 0.000000 22.044415 3.665389 0.383310 53.401789 9.511708 -1.230939 0.797475 25.377338 1.093757 0.000000 0.000000 0.000000 
